<svg width="50" height="50" viewBox="0 0 50 50" fill="none" xmlns="http://www.w3.org/2000/svg">
<path d="M41.3438 41.3437H34.6762V30.9C34.6762 28.41 34.6313 25.2037 31.2075 25.2037C27.735 25.2037 27.2025 27.9187 27.2025 30.7162V41.3437H20.535V19.8675H26.9363V22.8037H27.0262C28.3312 20.5762 30.7613 19.2412 33.3413 19.335C40.0988 19.335 41.3475 23.7787 41.3475 29.565L41.3438 41.3399V41.3437ZM13.0125 16.9313C11.9883 16.9263 11.0074 16.5175 10.2828 15.7936C9.55816 15.0698 9.14841 14.0892 9.1425 13.065C9.1425 10.9425 10.89 9.19503 13.0125 9.19503C15.135 9.19503 16.8788 10.9425 16.8825 13.065C16.8825 15.1875 15.135 16.9313 13.0125 16.9313ZM16.3463 41.3437H9.67125V19.8675H16.3463V41.3437ZM44.6625 3.00006H6.31875C5.44931 2.99501 4.61302 3.33328 3.99159 3.94136C3.37016 4.54945 3.01382 5.37821 3 6.24754V44.7524C3.01382 45.6217 3.37016 46.4505 3.99159 47.0586C4.61302 47.6667 5.44931 48.0049 6.31875 47.9999H44.6663C45.5377 48.007 46.3767 47.6698 47.001 47.0617C47.6252 46.4536 47.9842 45.6237 48 44.7524V6.24379C47.9842 5.37315 47.6249 4.54403 47.0005 3.93713C46.376 3.33024 45.537 2.99476 44.6663 3.00381L44.6625 3.00006Z" fill="url(#paint0_linear_5_80)"/>
<defs>
<linearGradient id="paint0_linear_5_80" x1="25.5" y1="3" x2="25.5" y2="48" gradientUnits="userSpaceOnUse">
<stop stop-color="#FFDB6E"/>
<stop offset="1" stop-color="#FFBC5E"/>
</linearGradient>
</defs>
</svg>
