<svg width="50" height="50" viewBox="0 0 50 50" fill="none" xmlns="http://www.w3.org/2000/svg">
<path fill-rule="evenodd" clip-rule="evenodd" d="M25.5 3C37.9267 3 48 13.3273 48 26.0691C48 36.2593 41.5605 44.9039 32.6257 47.9572C31.485 48.1844 31.08 47.464 31.08 46.8497C31.08 46.0892 31.107 43.6053 31.107 40.5183C31.107 38.3673 30.387 36.9634 29.5793 36.2479C34.59 35.6764 39.855 33.7255 39.855 24.865C39.855 22.345 38.982 20.2886 37.5375 18.6731C37.7715 18.0903 38.5432 15.7439 37.317 12.5669C37.317 12.5669 35.4315 11.9488 31.1362 14.9323C29.3385 14.4215 27.4125 14.1645 25.5 14.1555C23.5875 14.1645 21.6638 14.4215 19.8683 14.9323C15.5685 11.9488 13.6785 12.5669 13.6785 12.5669C12.4568 15.7439 13.2285 18.0903 13.4603 18.6731C12.0225 20.2886 11.1428 22.345 11.1428 24.865C11.1428 33.703 16.3965 35.6839 21.3938 36.2666C20.7503 36.8426 20.1675 37.8587 19.965 39.3505C18.6825 39.94 15.4245 40.9602 13.4175 37.4344C13.4175 37.4344 12.2273 35.2179 9.96825 35.0559C9.96825 35.0559 7.7745 35.0268 9.81525 36.4578C9.81525 36.4578 11.289 37.1665 12.3127 39.8328C12.3127 39.8328 13.6335 43.9502 19.893 42.5552C19.9043 44.4834 19.9245 46.3007 19.9245 46.8497C19.9245 47.4595 19.5105 48.1731 18.3877 47.9594C9.44624 44.9106 3 36.2616 3 26.0691C3 13.3273 13.0755 3 25.5 3Z" fill="url(#paint0_linear_5_82)"/>
<defs>
<linearGradient id="paint0_linear_5_82" x1="25.5" y1="3" x2="25.5" y2="48.0001" gradientUnits="userSpaceOnUse">
<stop stop-color="#FFDB6E"/>
<stop offset="1" stop-color="#FFBC5E"/>
</linearGradient>
</defs>
</svg>
