<svg width="60" height="60" viewBox="0 0 60 60" fill="none" xmlns="http://www.w3.org/2000/svg">
<path d="M29.7692 30.8077C28.3846 30.9231 27.1154 30.3462 25.7308 29.8846C18.4615 27.4615 11.0769 25.0385 3.80768 22.6154C3.34614 22.3846 2.99999 22.2692 2.65383 21.9231C2.19229 21.5769 2.19229 21.1154 2.65383 20.7692C2.99999 20.5385 3.46152 20.1923 3.92306 20.0769C11.7692 17.7692 19.5 15.4615 27.3461 13.0385C29.0769 12.4615 30.9231 12.4615 32.7692 13.0385C40.5 15.3462 48.2308 17.6538 55.9615 19.9615C56.4231 20.1923 56.8846 20.3077 57.3461 20.6538C57.9231 21 57.9231 21.5769 57.3461 21.9231C57 22.1538 56.6538 22.3846 56.1923 22.5C48.4615 25.0385 40.7308 27.6923 32.8846 30.2308C31.8461 30.6923 30.9231 30.8077 29.7692 30.8077Z" fill="url(#paint0_linear_10_8)"/>
<path d="M14.4231 31.1538C13.2692 30.9231 13.0385 31.6154 13.0385 32.1923C13.0385 35.1923 13.0385 38.0769 13.0385 40.9615C13.0385 42 13.3846 42.5769 14.0769 43.2692C14.3077 43.5 14.6538 43.7307 14.8846 43.9615C16.7308 45.2307 18.9231 46.0384 21.1154 46.6154C25.5 47.7692 29.8846 48 34.3846 47.4231C37.2692 47.0769 40.1538 46.2692 42.8077 45.1154C43.9615 44.5384 45.1154 43.9615 45.9231 43.0384C46.5 42.4615 46.7308 41.8846 46.6154 41.0769C46.7308 38.3077 46.7308 35.4231 46.7308 32.5384C46.7308 30.9231 45.5769 31.1538 45.1154 31.2692C41.0769 32.6538 36.8077 33.9231 32.7692 35.3077C30.6923 36 28.7308 36 26.7692 35.3077L14.4231 31.1538Z" fill="url(#paint1_linear_10_8)"/>
<path d="M52.9615 28.5C52.6153 28.6154 52.5 28.7308 52.5 29.1923C52.5 31.8461 52.5 34.3846 52.5 37.0385C52.5 37.2692 52.3846 37.6154 52.2692 37.8461C51.6923 39.2308 51.1153 40.6154 50.6538 42C50.1923 43.2692 50.423 44.6538 51.3461 45.5769C51.5769 45.9231 52.0384 46.2692 52.3846 46.5C52.7307 46.8461 53.3076 46.9615 53.7692 47.0769C54.5769 47.1923 55.2692 46.7308 55.8461 46.2692C56.0769 46.0385 56.423 45.8077 56.6538 45.4615C57.3461 44.5385 57.4615 43.3846 57.2307 42.3462C56.8846 40.7308 56.1923 39.3462 55.5 37.9615C55.2692 37.7308 55.2692 37.2692 55.2692 37.0385C55.2692 34.1538 55.2692 31.3846 55.2692 28.5C55.2692 27.9231 54.8076 28.0385 54.5769 28.1538L52.9615 28.5Z" fill="url(#paint2_linear_10_8)"/>
<defs>
<linearGradient id="paint0_linear_10_8" x1="30.0433" y1="12.6058" x2="30.0433" y2="30.8226" gradientUnits="userSpaceOnUse">
<stop stop-color="#FFDB6E"/>
<stop offset="1" stop-color="#FFBC5E"/>
</linearGradient>
<linearGradient id="paint1_linear_10_8" x1="29.8846" y1="31.1083" x2="29.8846" y2="47.7271" gradientUnits="userSpaceOnUse">
<stop stop-color="#FFDB6E"/>
<stop offset="1" stop-color="#FFBC5E"/>
</linearGradient>
<linearGradient id="paint2_linear_10_8" x1="53.8809" y1="28.0596" x2="53.8809" y2="47.0949" gradientUnits="userSpaceOnUse">
<stop stop-color="#FFDB6E"/>
<stop offset="1" stop-color="#FFBC5E"/>
</linearGradient>
</defs>
</svg>
